<svg width="18" height="18" viewBox="0 0 18 18" fill="none" xmlns="http://www.w3.org/2000/svg">
<path d="M12.544 2.5C13.0963 2.5 13.544 2.05228 13.544 1.5C13.544 0.947715 13.0963 0.5 12.544 0.5V2.5ZM17.7107 9C17.7107 8.44772 17.263 8 16.7107 8C16.1584 8 15.7107 8.44772 15.7107 9H17.7107ZM3.53072 16.1367L3.98472 15.2457L3.53072 16.1367ZM2.074 14.68L2.96501 14.226L2.96501 14.226L2.074 14.68ZM14.8907 16.1367L14.4367 15.2457L14.4367 15.2457L14.8907 16.1367ZM16.3474 14.68L15.4564 14.226L15.4564 14.226L16.3474 14.68ZM2.074 3.32003L1.183 2.86604H1.183L2.074 3.32003ZM3.53072 1.86331L3.07673 0.972305V0.972305L3.53072 1.86331ZM9.55843 10.3689L8.84886 9.66431L8.84886 9.66431L9.55843 10.3689ZM17.4203 3.87131C17.8094 3.47942 17.8072 2.84626 17.4153 2.4571C17.0234 2.06794 16.3903 2.07015 16.0011 2.46203L17.4203 3.87131ZM8.96712 10.3689L9.67669 9.66431L9.67669 9.66431L8.96712 10.3689ZM6.58693 6.55294C6.19776 6.16105 5.5646 6.15885 5.17272 6.54801C4.78084 6.93717 4.77863 7.57033 5.16779 7.96221L6.58693 6.55294ZM11.3774 15.5H7.04403V17.5H11.3774V15.5ZM2.71069 11.1667V6.83333H0.710693V11.1667H2.71069ZM7.04403 2.5H12.544V0.5H7.04403V2.5ZM15.7107 9V11.1667H17.7107V9H15.7107ZM7.04403 15.5C6.0941 15.5 5.44181 15.4992 4.93613 15.4579C4.44213 15.4175 4.17677 15.3435 3.98472 15.2457L3.07673 17.0277C3.59772 17.2932 4.15559 17.4008 4.77327 17.4513C5.37928 17.5008 6.12711 17.5 7.04403 17.5V15.5ZM0.710693 11.1667C0.710693 12.0836 0.709916 12.8314 0.759428 13.4374C0.809895 14.0551 0.917542 14.613 1.183 15.134L2.96501 14.226C2.86716 14.0339 2.79315 13.7686 2.75279 13.2746C2.71147 12.7689 2.71069 12.1166 2.71069 11.1667H0.710693ZM3.98472 15.2457C3.54567 15.022 3.18872 14.665 2.96501 14.226L1.183 15.134C1.59845 15.9493 2.26137 16.6122 3.07673 17.0277L3.98472 15.2457ZM11.3774 17.5C12.2943 17.5 13.0421 17.5008 13.6481 17.4513C14.2658 17.4008 14.8237 17.2932 15.3447 17.0277L14.4367 15.2457C14.2446 15.3435 13.9793 15.4175 13.4853 15.4579C12.9796 15.4992 12.3273 15.5 11.3774 15.5V17.5ZM15.7107 11.1667C15.7107 12.1166 15.7099 12.7689 15.6686 13.2746C15.6282 13.7686 15.5542 14.0339 15.4564 14.226L17.2384 15.134C17.5038 14.613 17.6115 14.0551 17.662 13.4374C17.7115 12.8314 17.7107 12.0836 17.7107 11.1667H15.7107ZM15.3447 17.0277C16.16 16.6122 16.8229 15.9493 17.2384 15.134L15.4564 14.226C15.2327 14.665 14.8757 15.022 14.4367 15.2457L15.3447 17.0277ZM2.71069 6.83333C2.71069 5.88341 2.71147 5.23111 2.75279 4.72544C2.79315 4.23144 2.86716 3.96607 2.96501 3.77402L1.183 2.86604C0.917542 3.38703 0.809895 3.94489 0.759428 4.56257C0.709916 5.16858 0.710693 5.91641 0.710693 6.83333H2.71069ZM7.04403 0.5C6.12711 0.5 5.37928 0.499222 4.77327 0.548735C4.15559 0.599202 3.59772 0.706849 3.07673 0.972305L3.98472 2.75432C4.17677 2.65646 4.44213 2.58245 4.93613 2.54209C5.44181 2.50078 6.0941 2.5 7.04403 2.5V0.5ZM2.96501 3.77402C3.18872 3.33498 3.54567 2.97802 3.98472 2.75432L3.07673 0.972305C2.26137 1.38776 1.59845 2.05067 1.183 2.86604L2.96501 3.77402ZM10.268 11.0736L17.4203 3.87131L16.0011 2.46203L8.84886 9.66431L10.268 11.0736ZM9.67669 9.66431L6.58693 6.55294L5.16779 7.96221L8.25756 11.0736L9.67669 9.66431ZM8.84886 9.66431C9.07699 9.43458 9.44856 9.43458 9.67669 9.66431L8.25756 11.0736C8.81159 11.6315 9.71397 11.6315 10.268 11.0736L8.84886 9.66431Z" fill="#34A34C"/>
</svg>
