<svg width="62" height="62" viewBox="0 0 62 62" fill="none" xmlns="http://www.w3.org/2000/svg">
<g filter="url(#filter0_d_6869_14411)">
<path d="M2.66663 11.6C2.66663 8.23968 2.66663 6.55953 3.32059 5.27606C3.89583 4.14708 4.81371 3.2292 5.94268 2.65396C7.22615 2 8.90631 2 12.2666 2H49.0666C52.4269 2 54.1071 2 55.3906 2.65396C56.5195 3.2292 57.4374 4.14708 58.0127 5.27606C58.6666 6.55953 58.6666 8.23969 58.6666 11.6V48.4C58.6666 51.7603 58.6666 53.4405 58.0127 54.7239C57.4374 55.8529 56.5195 56.7708 55.3906 57.346C54.1071 58 52.4269 58 49.0666 58H12.2666C8.90631 58 7.22615 58 5.94268 57.346C4.81371 56.7708 3.89583 55.8529 3.32059 54.7239C2.66663 53.4405 2.66663 51.7603 2.66663 48.4V11.6Z" fill="white" shape-rendering="crispEdges"/>
<path d="M2.66663 11.6C2.66663 8.23968 2.66663 6.55953 3.32059 5.27606C3.89583 4.14708 4.81371 3.2292 5.94268 2.65396C7.22615 2 8.90631 2 12.2666 2H49.0666C52.4269 2 54.1071 2 55.3906 2.65396C56.5195 3.2292 57.4374 4.14708 58.0127 5.27606C58.6666 6.55953 58.6666 8.23969 58.6666 11.6V48.4C58.6666 51.7603 58.6666 53.4405 58.0127 54.7239C57.4374 55.8529 56.5195 56.7708 55.3906 57.346C54.1071 58 52.4269 58 49.0666 58H12.2666C8.90631 58 7.22615 58 5.94268 57.346C4.81371 56.7708 3.89583 55.8529 3.32059 54.7239C2.66663 53.4405 2.66663 51.7603 2.66663 48.4V11.6Z" stroke="#E5E5E7" shape-rendering="crispEdges"/>
<path fill-rule="evenodd" clip-rule="evenodd" d="M37.7238 18.3905C38.2445 17.8698 39.0887 17.8698 39.6094 18.3905L42.6666 21.4477C43.708 22.4891 43.708 24.1776 42.6666 25.219L39.6094 28.2761C39.0887 28.7968 38.2445 28.7968 37.7238 28.2761C37.2031 27.7554 37.2031 26.9112 37.7238 26.3905L39.4477 24.6667H36C33.7908 24.6667 32 26.4575 32 28.6667V31.3333C32 33.5425 33.7908 35.3333 36 35.3333H39.4477L37.7238 33.6095C37.2031 33.0888 37.2031 32.2446 37.7238 31.7239C38.2445 31.2032 39.0887 31.2032 39.6094 31.7239L42.6666 34.781C43.708 35.8225 43.708 37.5109 42.6666 38.5523L39.6094 41.6095C39.0887 42.1302 38.2445 42.1302 37.7238 41.6095C37.2031 41.0888 37.2031 40.2446 37.7238 39.7239L39.4477 38H36C32.3181 38 29.3333 35.0152 29.3333 31.3333H20C19.2636 31.3333 18.6666 30.7364 18.6666 30C18.6666 29.2636 19.2636 28.6667 20 28.6667H29.3333C29.3333 24.9848 32.3181 22 36 22H39.4477L37.7238 20.2761C37.2031 19.7554 37.2031 18.9112 37.7238 18.3905Z" fill="#34A34C"/>
</g>
<defs>
<filter id="filter0_d_6869_14411" x="0.166626" y="0.5" width="61" height="61" filterUnits="userSpaceOnUse" color-interpolation-filters="sRGB">
<feFlood flood-opacity="0" result="BackgroundImageFix"/>
<feColorMatrix in="SourceAlpha" type="matrix" values="0 0 0 0 0 0 0 0 0 0 0 0 0 0 0 0 0 0 127 0" result="hardAlpha"/>
<feOffset dy="1"/>
<feGaussianBlur stdDeviation="1"/>
<feComposite in2="hardAlpha" operator="out"/>
<feColorMatrix type="matrix" values="0 0 0 0 0.0627451 0 0 0 0 0.0941176 0 0 0 0 0.156863 0 0 0 0.04 0"/>
<feBlend mode="normal" in2="BackgroundImageFix" result="effect1_dropShadow_6869_14411"/>
<feBlend mode="normal" in="SourceGraphic" in2="effect1_dropShadow_6869_14411" result="shape"/>
</filter>
</defs>
</svg>
