<svg width="62" height="62" viewBox="0 0 62 62" fill="none" xmlns="http://www.w3.org/2000/svg">
<g filter="url(#filter0_d_6869_11861)">
<path d="M3.00006 11.6C3.00006 8.23968 3.00006 6.55953 3.65402 5.27606C4.22926 4.14708 5.14715 3.2292 6.27612 2.65396C7.55959 2 9.23975 2 12.6001 2H49.4001C52.7604 2 54.4405 2 55.724 2.65396C56.853 3.2292 57.7709 4.14708 58.3461 5.27606C59.0001 6.55953 59.0001 8.23969 59.0001 11.6V48.4C59.0001 51.7603 59.0001 53.4405 58.3461 54.7239C57.7709 55.8529 56.853 56.7708 55.724 57.346C54.4405 58 52.7604 58 49.4001 58H12.6001C9.23975 58 7.55959 58 6.27612 57.346C5.14715 56.7708 4.22926 55.8529 3.65402 54.7239C3.00006 53.4405 3.00006 51.7603 3.00006 48.4V11.6Z" fill="white" shape-rendering="crispEdges"/>
<path d="M3.00006 11.6C3.00006 8.23968 3.00006 6.55953 3.65402 5.27606C4.22926 4.14708 5.14715 3.2292 6.27612 2.65396C7.55959 2 9.23975 2 12.6001 2H49.4001C52.7604 2 54.4405 2 55.724 2.65396C56.853 3.2292 57.7709 4.14708 58.3461 5.27606C59.0001 6.55953 59.0001 8.23969 59.0001 11.6V48.4C59.0001 51.7603 59.0001 53.4405 58.3461 54.7239C57.7709 55.8529 56.853 56.7708 55.724 57.346C54.4405 58 52.7604 58 49.4001 58H12.6001C9.23975 58 7.55959 58 6.27612 57.346C5.14715 56.7708 4.22926 55.8529 3.65402 54.7239C3.00006 53.4405 3.00006 51.7603 3.00006 48.4V11.6Z" stroke="#E5E5E7" shape-rendering="crispEdges"/>
<g clip-path="url(#clip0_6869_11861)">
<g filter="url(#filter1_d_6869_11861)">
<path d="M17.6667 20.6667C17.6667 18.4576 19.4576 16.6667 21.6667 16.6667H25.6667C27.8759 16.6667 29.6667 18.4576 29.6667 20.6667V24.6667C29.6667 26.8759 27.8759 28.6667 25.6667 28.6667H21.6667C19.4576 28.6667 17.6667 26.8759 17.6667 24.6667V20.6667Z" fill="#34A34C"/>
<path d="M17.6667 35.3334C17.6667 33.1243 19.4576 31.3334 21.6667 31.3334H25.6667C27.8759 31.3334 29.6667 33.1243 29.6667 35.3334V39.3334C29.6667 41.5426 27.8759 43.3334 25.6667 43.3334H21.6667C19.4576 43.3334 17.6667 41.5426 17.6667 39.3334V35.3334Z" fill="#34A34C"/>
<path d="M32.3334 20.6667C32.3334 18.4576 34.1243 16.6667 36.3334 16.6667H40.3334C42.5426 16.6667 44.3334 18.4576 44.3334 20.6667V24.6667C44.3334 26.8759 42.5426 28.6667 40.3334 28.6667H36.3334C34.1243 28.6667 32.3334 26.8759 32.3334 24.6667V20.6667Z" fill="#34A34C"/>
<path d="M34.3334 31.3334C33.2288 31.3334 32.3334 32.2288 32.3334 33.3334C32.3334 34.438 33.2288 35.3334 34.3334 35.3334C35.438 35.3334 36.3334 34.438 36.3334 33.3334C36.3334 32.2288 35.438 31.3334 34.3334 31.3334Z" fill="#34A34C"/>
<path d="M32.3334 41.3334C32.3334 40.2288 33.2288 39.3334 34.3334 39.3334C35.438 39.3334 36.3334 40.2288 36.3334 41.3334C36.3334 42.438 35.438 43.3334 34.3334 43.3334C33.2288 43.3334 32.3334 42.438 32.3334 41.3334Z" fill="#34A34C"/>
<path d="M38.3334 35.3334C37.2288 35.3334 36.3334 36.2288 36.3334 37.3334C36.3334 38.438 37.2288 39.3334 38.3334 39.3334C39.438 39.3334 40.3334 38.438 40.3334 37.3334C40.3334 36.2288 39.438 35.3334 38.3334 35.3334Z" fill="#34A34C"/>
<path d="M40.3334 33.3334C40.3334 32.2288 41.2288 31.3334 42.3334 31.3334C43.438 31.3334 44.3334 32.2288 44.3334 33.3334C44.3334 34.438 43.438 35.3334 42.3334 35.3334C41.2288 35.3334 40.3334 34.438 40.3334 33.3334Z" fill="#34A34C"/>
<path d="M42.3334 39.3334C41.2288 39.3334 40.3334 40.2288 40.3334 41.3334C40.3334 42.438 41.2288 43.3334 42.3334 43.3334C43.438 43.3334 44.3334 42.438 44.3334 41.3334C44.3334 40.2288 43.438 39.3334 42.3334 39.3334Z" fill="#34A34C"/>
</g>
</g>
</g>
<defs>
<filter id="filter0_d_6869_11861" x="0.500061" y="0.5" width="61" height="61" filterUnits="userSpaceOnUse" color-interpolation-filters="sRGB">
<feFlood flood-opacity="0" result="BackgroundImageFix"/>
<feColorMatrix in="SourceAlpha" type="matrix" values="0 0 0 0 0 0 0 0 0 0 0 0 0 0 0 0 0 0 127 0" result="hardAlpha"/>
<feOffset dy="1"/>
<feGaussianBlur stdDeviation="1"/>
<feComposite in2="hardAlpha" operator="out"/>
<feColorMatrix type="matrix" values="0 0 0 0 0.0627451 0 0 0 0 0.0941176 0 0 0 0 0.156863 0 0 0 0.04 0"/>
<feBlend mode="normal" in2="BackgroundImageFix" result="effect1_dropShadow_6869_11861"/>
<feBlend mode="normal" in="SourceGraphic" in2="effect1_dropShadow_6869_11861" result="shape"/>
</filter>
<filter id="filter1_d_6869_11861" x="15.6667" y="15.6667" width="30.6667" height="30.6667" filterUnits="userSpaceOnUse" color-interpolation-filters="sRGB">
<feFlood flood-opacity="0" result="BackgroundImageFix"/>
<feColorMatrix in="SourceAlpha" type="matrix" values="0 0 0 0 0 0 0 0 0 0 0 0 0 0 0 0 0 0 127 0" result="hardAlpha"/>
<feOffset dy="1"/>
<feGaussianBlur stdDeviation="1"/>
<feComposite in2="hardAlpha" operator="out"/>
<feColorMatrix type="matrix" values="0 0 0 0 0.0627451 0 0 0 0 0.0941176 0 0 0 0 0.156863 0 0 0 0.04 0"/>
<feBlend mode="normal" in2="BackgroundImageFix" result="effect1_dropShadow_6869_11861"/>
<feBlend mode="normal" in="SourceGraphic" in2="effect1_dropShadow_6869_11861" result="shape"/>
</filter>
<clipPath id="clip0_6869_11861">
<rect width="32" height="32" fill="white" transform="translate(15.0001 14)"/>
</clipPath>
</defs>
</svg>
